<svg height="512pt" viewBox="0 0 512 512" width="512pt" xmlns="http://www.w3.org/2000/svg"><path d="m512 180v-180h-256l-60 240zm0 0" fill="#8d9bb6"/><path d="m256 0h-256v180l256 60zm0 0" fill="#9eadc8"/><path d="m512 180h-195.5l-165.5 166 165.5 166h195.5zm0 0" fill="#4e8dff"/><path d="m256 180-40 173.5 40 158.5h60.5v-332zm0 0" fill="#b0c1e1"/><path d="m0 180h256v332h-256zm0 0" fill="#c7dbff"/><path d="m0 240h151v212h-151zm0 0" fill="#9eadc8"/><path d="m459.75 285.5c0 25.128906-20.371094 45.5-45.5 45.5s-45.5-20.371094-45.5-45.5 20.371094-45.5 45.5-45.5 45.5 20.371094 45.5 45.5zm0 0" fill="#a3c4ff"/><path d="m459.75 406.5c0 25.128906-20.371094 45.5-45.5 45.5s-45.5-20.371094-45.5-45.5 20.371094-45.5 45.5-45.5 45.5 20.371094 45.5 45.5zm0 0" fill="#a3c4ff"/><path d="m452 45h-196l-40 45 40 45h196zm0 0" fill="#091c40"/><g fill="#173261"><path d="m60 45h196v90h-196zm0 0"/><path d="m257 346c0 58.542969-47.457031 106-106 106s-106-47.457031-106-106 47.457031-106 106-106 106 47.457031 106 106zm0 0"/></g></svg>